<?xml version="1.0" standalone="no"?>
<!DOCTYPE svg PUBLIC "-//W3C//DTD SVG 20010904//EN"
 "http://www.w3.org/TR/2001/REC-SVG-20010904/DTD/svg10.dtd">
<svg version="1.0" xmlns="http://www.w3.org/2000/svg"
 width="2000.000000pt" height="2000.000000pt" viewBox="0 0 2000.000000 2000.000000"
 preserveAspectRatio="xMidYMid meet">

<g transform="translate(0.000000,2000.000000) scale(0.100000,-0.100000)"
fill="#000000" stroke="none">
<path d="M14185 16465 c-173 -38 -371 -154 -625 -368 -122 -102 -330 -308
-440 -435 -51 -59 -60 -64 -120 -78 -190 -44 -561 -94 -835 -113 -330 -23
-472 -25 -1840 -26 -781 -1 -1451 -5 -1490 -9 -38 -4 -146 -14 -240 -22 -753
-67 -1414 -282 -1929 -626 -716 -478 -1162 -1179 -1260 -1978 -19 -150 -14
-457 9 -605 66 -431 248 -808 520 -1080 224 -224 530 -390 830 -449 136 -27
233 -34 420 -31 594 11 1126 253 1596 728 258 259 530 655 664 964 40 92 39
120 -2 153 -64 50 -103 17 -192 -165 -275 -564 -728 -1051 -1199 -1291 -321
-163 -624 -232 -966 -221 -260 8 -457 55 -647 153 -262 135 -476 391 -594 709
-159 428 -135 974 65 1475 342 861 1116 1535 2164 1885 299 100 557 161 861
204 344 48 356 49 1835 42 487 -2 968 -1 1070 4 117 4 181 4 175 -2 -5 -6 -91
-74 -190 -153 -194 -155 -426 -379 -564 -545 -623 -750 -1181 -1835 -1798
-3495 -36 -96 -211 -578 -390 -1070 -419 -1152 -556 -1504 -783 -2005 -366
-809 -766 -1407 -1210 -1811 -363 -329 -818 -532 -1305 -583 -128 -13 -453 -6
-550 12 -240 45 -410 112 -586 228 -125 83 -293 253 -381 384 -451 676 -379
1761 173 2605 500 766 1273 1220 2249 1322 130 13 568 16 735 5 303 -21 612
-54 944 -102 129 -19 236 -33 238 -31 2 2 -13 42 -33 89 -30 72 -40 87 -62 91
-46 9 -388 54 -572 75 -157 18 -247 26 -530 46 -156 12 -591 6 -751 -10 -961
-93 -1773 -554 -2301 -1307 -327 -465 -516 -1009 -548 -1575 -47 -823 298
-1520 902 -1824 260 -131 492 -182 833 -183 523 -1 940 127 1405 431 279 183
456 329 678 557 384 397 781 958 1147 1621 212 384 519 1029 730 1531 64 153
120 282 124 285 3 4 44 1 91 -7 379 -60 927 -113 1255 -120 132 -3 245 -7 251
-9 8 -2 13 -137 17 -447 4 -243 9 -456 11 -473 2 -16 7 -77 11 -135 35 -567
138 -1197 280 -1705 72 -256 130 -430 228 -675 88 -222 256 -568 272 -561 6 2
40 87 76 189 l66 185 -49 151 c-135 414 -241 968 -283 1471 -4 44 -8 89 -10
101 -2 11 -6 76 -10 145 -4 68 -9 135 -11 149 -18 156 -25 1305 -10 1531 l8
107 96 12 c662 84 1270 323 1590 625 68 64 76 76 76 109 0 48 -29 78 -77 78
-30 0 -49 -11 -112 -66 -280 -244 -721 -437 -1222 -535 -145 -29 -332 -55
-339 -48 -5 5 10 278 21 382 2 22 7 76 10 120 10 140 51 550 70 705 3 19 9 76
15 125 52 433 152 1019 256 1490 249 1134 555 1938 999 2628 43 67 55 79 90
88 276 75 723 261 896 372 217 139 339 293 339 427 0 155 -134 229 -335 185z
m145 -174 c24 -46 -100 -196 -235 -283 -74 -48 -221 -124 -345 -178 -96 -42
-332 -131 -336 -127 -2 1 36 47 84 102 201 229 460 415 672 483 104 33 143 34
160 3z m-1450 -935 c0 -3 -34 -58 -77 -123 -189 -291 -292 -470 -448 -778
-576 -1137 -967 -2603 -1084 -4065 -20 -253 -30 -400 -31 -458 l0 -34 -197 7
c-346 11 -704 43 -1138 101 -104 14 -197 28 -206 32 -14 6 -5 37 68 222 128
327 277 729 543 1458 370 1018 441 1206 610 1597 102 237 288 620 382 785 348
614 794 1055 1202 1190 119 39 376 84 376 66z"/>
<path d="M6489 13455 c0 -3 -1 -31 -1 -62 l-1 -58 89 -8 c490 -42 858 -364
1208 -1056 108 -214 320 -692 418 -946 9 -21 20 -41 25 -42 16 -6 224 167 337
281 152 152 240 261 233 289 -3 12 -33 94 -66 182 -286 744 -231 1126 180
1250 74 22 239 45 327 45 l72 0 0 65 0 65 -1410 0 c-775 0 -1410 -2 -1411 -5z"/>
<path d="M13420 13401 l0 -60 53 -5 c28 -3 84 -8 124 -11 39 -3 114 -17 165
-31 353 -95 560 -348 613 -750 32 -246 8 -502 -80 -839 -38 -146 -68 -234
-320 -930 -162 -451 -670 -1867 -1460 -4075 -172 -481 -402 -1124 -511 -1428
-109 -304 -201 -549 -205 -545 -11 12 -965 2251 -1499 3518 -37 88 -174 414
-305 725 -130 311 -254 606 -275 655 l-39 90 -16 -40 c-94 -224 -240 -557
-314 -715 l-91 -194 166 -401 c91 -220 204 -490 249 -600 46 -110 183 -441
305 -735 122 -294 265 -638 317 -765 207 -497 440 -1060 881 -2120 l257 -620
59 -3 c32 -2 63 1 67 5 7 7 71 183 274 758 645 1826 1821 5101 2273 6330 491
1333 647 1693 893 2055 307 453 666 654 1197 670 8 0 12 19 12 60 l0 60 -1395
0 -1395 0 0 -59z"/>
<path d="M8863 11286 c-129 -131 -269 -251 -394 -336 l-88 -60 55 -133 c30
-72 135 -324 232 -559 97 -236 179 -428 182 -428 3 0 89 233 192 517 l187 516
-105 256 c-125 302 -142 341 -146 341 -2 -1 -53 -52 -115 -114z"/>
<path d="M14032 9207 c-14 -15 -22 -36 -22 -60 0 -44 8 -51 235 -192 709 -444
1164 -1171 1246 -1990 17 -170 6 -505 -21 -658 -110 -620 -401 -1089 -849
-1367 -243 -151 -511 -223 -826 -223 -254 0 -462 46 -661 146 -228 115 -450
327 -632 602 -36 55 -69 104 -72 108 -4 4 -29 -53 -55 -128 -38 -108 -46 -141
-38 -158 18 -38 219 -241 316 -320 480 -389 1029 -510 1625 -357 281 71 582
254 796 481 402 427 615 1043 593 1714 -20 599 -220 1148 -594 1633 -37 48
-141 161 -232 253 -207 206 -345 315 -594 465 -136 83 -176 92 -215 51z"/>
</g>
</svg>
